<svg version="1.1" xmlns="http://www.w3.org/2000/svg" style="display: block;" viewBox="0 0 2048 2048" width="2048" height="2048" preserveAspectRatio="none"><defs><linearGradient id="Gradient1" gradientUnits="userSpaceOnUse" x1="1025.31" y1="1.97869" x2="1021.69" y2="2045.01"><stop class="stop0" offset="0" stop-opacity="1" stop-color="rgb(1,83,157)"/><stop class="stop1" offset="1" stop-opacity="1" stop-color="rgb(64,154,233)"/></linearGradient></defs><path transform="translate(0,0)" fill="url(#Gradient1)" d="M 0 0 L 448.482 0 L 1599.66 0 L 2048 0 L 2048 448.522 L 2048 1597.7 L 2048 2048 L 1600.9 2048 L 449.073 2048 L 0 2048 L 0 1596.95 L 0 451.394 L 0 0 z"/><path transform="translate(0,0)" fill="rgb(254,254,254)" d="M 0 0 L 448.482 0 C 416.123 4.77341 398.131 4.5334 363.968 12.3332 C 255.045 37.7402 158.728 101.102 92.2725 191.065 C 48.1795 250.167 18.8052 318.924 6.58369 391.642 C 4.65213 402.953 3.20598 414.342 2.24924 425.777 C 1.69344 432.469 1.1215 445.175 0 451.394 L 0 0 z"/><path transform="translate(0,0)" fill="rgb(254,254,254)" d="M 0 1596.95 C 1.7877 1610.62 2.31527 1624.53 3.90959 1638.25 C 18.393 1762.88 87.2061 1875.55 185.988 1951.59 C 244.874 1996.87 313.765 2027.36 386.876 2040.49 C 409.149 2044.42 428.885 2044.82 449.073 2048 L 0 2048 L 0 1596.95 z"/><path transform="translate(0,0)" fill="rgb(254,254,254)" d="M 1600.9 2048 C 1605.65 2046.99 1618.9 2046.12 1624.29 2045.58 C 1637.47 2044.28 1650.58 2042.45 1663.61 2040.08 C 1737.31 2026.24 1806.61 1994.92 1865.69 1948.74 C 1962.75 1873.54 2029.72 1760.89 2044.08 1638.39 C 2045.67 1624.85 2046.3 1611.19 2048 1597.7 L 2048 2048 L 1600.9 2048 z"/><path transform="translate(0,0)" fill="rgb(254,254,254)" d="M 1599.66 0 L 2048 0 L 2048 448.522 C 2046.98 443.515 2046.24 429.883 2045.73 424.214 C 2044.61 411.805 2042.95 399.45 2040.76 387.186 C 2027.98 315.373 1998.5 247.569 1954.7 189.246 C 1892 104.723 1794.56 38.7024 1692.06 14.0137 C 1672.41 9.35959 1652.51 5.84209 1632.45 3.47864 C 1621.67 2.19389 1610.27 1.57218 1599.66 0 z"/><path transform="translate(0,0)" fill="rgb(208,219,231)" d="M 1351.05 612.228 C 1356.46 611.809 1600.79 688.623 1623.97 696.579 L 1624 1371.91 L 1623.99 1595.09 C 1623.98 1634.51 1623.2 1676.94 1624.22 1716 C 1633.53 1716.01 1644.21 1716.55 1653.36 1716 C 1676.72 1714.58 1708.45 1715.35 1707.77 1748.02 C 1707.67 1756.64 1703.94 1764.81 1697.5 1770.54 C 1689.67 1777.38 1681.23 1777.91 1671.13 1777.95 C 1639.75 1778.11 1608.26 1778.03 1576.89 1778.03 L 1393.7 1778.01 L 848.135 1778 L 520.192 1777.98 L 415.936 1777.99 C 401.15 1777.99 385.878 1778.12 371.088 1778.17 C 362.558 1778.2 352.112 1772.74 346.593 1765.75 C 341.328 1759.07 339.04 1750.52 340.266 1742.11 C 341.359 1734.24 345.655 1727.18 352.137 1722.58 C 366.304 1712.37 404.461 1716.29 423.984 1716.05 L 424.014 696.673 L 615.832 636.835 C 637.721 630.06 675.597 616.624 696.045 612.054 L 989.943 696.519 L 989.918 1096.19 C 989.911 1162.66 988.265 1236.46 990.063 1302.48 C 993.175 1324.05 990.124 1359.41 991.322 1382.1 C 991.931 1393.63 992.607 1403.11 992.814 1414.73 C 993.761 1488.58 993.639 1562.44 992.449 1636.29 L 992.371 1693.7 C 992.355 1697.73 992.527 1713.33 991.948 1716.15 L 1057.91 1716.1 L 1057.92 1026.2 L 1057.93 804.87 L 1057.85 735.994 C 1057.84 724.247 1057.36 707.762 1058.29 696.528 C 1155.24 668.684 1254.67 641.463 1351.05 612.228 z"/><path transform="translate(0,0)" fill="rgb(254,254,254)" d="M 1351.05 612.228 C 1356.46 611.809 1600.79 688.623 1623.97 696.579 L 1624 1371.91 L 1623.99 1595.09 C 1623.98 1634.51 1623.2 1676.94 1624.22 1716 C 1624.22 1720.54 1624.97 1723.5 1622.94 1726.99 C 1618.43 1729.01 1575.78 1728 1567.29 1728.01 L 1456.34 1728.03 L 1395.6 1727.91 C 1383.57 1727.98 1363.86 1728.86 1352.68 1727.57 L 1351.13 1726.28 C 1351.06 1722.71 1351.7 1719.59 1349.92 1717.31 C 1324.36 1714.93 1289.02 1717.89 1262.91 1716.85 C 1253.5 1716.47 1239.86 1717.37 1230.67 1716.15 C 1214.08 1715.56 1193.31 1716.12 1176.38 1716.12 L 1058.83 1716.02 C 1057.9 1643.23 1058.82 1568.57 1058.76 1495.58 L 1058.73 991.626 L 1058.64 802.675 C 1058.65 769.522 1059.77 729.193 1058.29 696.528 C 1155.24 668.684 1254.67 641.463 1351.05 612.228 z"/><path transform="translate(0,0)" fill="rgb(201,214,227)" d="M 1351.05 612.228 C 1356.46 611.809 1600.79 688.623 1623.97 696.579 L 1624 1371.91 L 1623.99 1595.09 C 1623.98 1634.51 1623.2 1676.94 1624.22 1716 C 1624.22 1720.54 1624.97 1723.5 1622.94 1726.99 C 1618.43 1729.01 1575.78 1728 1567.29 1728.01 L 1456.34 1728.03 L 1395.6 1727.91 C 1383.57 1727.98 1363.86 1728.86 1352.68 1727.57 L 1351.13 1726.28 C 1351.06 1722.71 1351.7 1719.59 1349.92 1717.31 C 1324.36 1714.93 1289.02 1717.89 1262.91 1716.85 C 1253.5 1716.47 1239.86 1717.37 1230.67 1716.15 C 1242.18 1715.36 1259.91 1715.89 1271.77 1715.88 L 1352 1715.86 L 1352.05 859.973 L 1352.06 686.163 C 1352.06 675.668 1353.1 618.227 1351.05 612.228 z"/><path transform="translate(0,0)" fill="rgb(9,121,203)" d="M 1394.07 1106.76 C 1405.01 1109.07 1417.38 1111.05 1428.47 1113.06 C 1429.02 1157.26 1428.49 1202.67 1428.37 1246.94 C 1421.71 1247.35 1401.5 1244.01 1393.99 1242.92 L 1394.07 1106.76 z"/><path transform="translate(0,0)" fill="rgb(9,121,203)" d="M 1448.54 1117.08 L 1482.03 1122.81 L 1482.09 1211.38 C 1482.1 1221.44 1482.77 1246.39 1481.65 1255.12 C 1470.65 1253.58 1459.64 1252.09 1448.62 1250.66 L 1448.54 1117.08 z"/><path transform="translate(0,0)" fill="rgb(9,121,203)" d="M 1501.89 1126.52 C 1510.95 1127.59 1524.71 1130.39 1534.04 1132.03 L 1533.96 1261.28 C 1524.24 1260.49 1511.86 1258.66 1501.94 1257.54 L 1501.89 1126.52 z"/><path transform="translate(0,0)" fill="rgb(9,121,203)" d="M 1553.86 1135.49 L 1585.86 1140.62 L 1585.8 1268.11 C 1575.12 1266.81 1564.46 1265.4 1553.81 1263.88 L 1553.86 1135.49 z"/><path transform="translate(0,0)" fill="rgb(9,121,203)" d="M 1394.09 701.583 L 1428.58 711.857 L 1428.54 801.496 C 1424.17 801.148 1399.55 793.785 1394.05 792.185 L 1394.09 701.583 z"/><path transform="translate(0,0)" fill="rgb(9,121,203)" d="M 1394.16 836.958 C 1405.66 839.724 1417.14 842.562 1428.6 845.471 L 1428.61 936.083 L 1394.1 928.129 L 1394.16 836.958 z"/><path transform="translate(0,0)" fill="rgb(9,121,203)" d="M 1394 1421.65 C 1405.09 1422.15 1417.36 1423.29 1428.51 1424.13 L 1428.5 1512.88 C 1425.47 1514.83 1399.47 1512.5 1394.03 1512.16 L 1394 1421.65 z"/><path transform="translate(0,0)" fill="rgb(9,121,203)" d="M 1394.07 972.119 C 1405.56 974.275 1417.09 976.992 1428.51 979.56 L 1428.56 1069.48 C 1425.8 1069.86 1399.11 1064.35 1394.03 1063.45 L 1394.07 972.119 z"/><path transform="translate(0,0)" fill="rgb(9,121,203)" d="M 1394.08 1556.14 C 1405.39 1556.75 1417.17 1557.02 1428.52 1557.42 L 1428.51 1646.75 C 1424.73 1648.49 1399.73 1647.63 1394.04 1647.57 L 1394.08 1556.14 z"/><path transform="translate(0,0)" fill="rgb(9,121,203)" d="M 1394.13 1286.87 C 1405.57 1288.43 1417.03 1289.87 1428.51 1291.19 L 1428.5 1380.75 C 1423.27 1381.26 1400.42 1378.48 1394.07 1377.81 L 1394.13 1286.87 z"/><path transform="translate(0,0)" fill="rgb(9,121,203)" d="M 1448.75 850.963 L 1482 859.455 L 1482.02 948.19 L 1448.51 940.448 L 1448.75 850.963 z"/><path transform="translate(0,0)" fill="rgb(9,121,203)" d="M 1448.59 983.713 C 1459.7 986.238 1470.84 988.618 1482.01 990.851 C 1482.15 1020.53 1482.12 1050.21 1481.92 1079.89 C 1470.75 1077.85 1459.6 1075.73 1448.48 1073.51 L 1448.59 983.713 z"/><path transform="translate(0,0)" fill="rgb(9,121,203)" d="M 1448.52 1293.64 C 1459.16 1294.5 1471.24 1296.21 1482.04 1297.35 L 1482.06 1385.85 L 1448.59 1382.81 L 1448.52 1293.64 z"/><path transform="translate(0,0)" fill="rgb(9,121,203)" d="M 1448.65 1558.01 C 1459.79 1558.28 1470.92 1558.63 1482.05 1559.05 L 1482.07 1647.6 L 1448.71 1647.63 L 1448.65 1558.01 z"/><path transform="translate(0,0)" fill="rgb(9,121,203)" d="M 1448.67 717.902 L 1481.99 727.87 L 1482.01 816.36 C 1471.21 813.735 1459.44 810.315 1448.63 807.407 L 1448.67 717.902 z"/><path transform="translate(0,0)" fill="rgb(9,121,203)" d="M 1448.63 1425.64 C 1459.53 1426.25 1471.1 1427.32 1482.04 1428.18 L 1482.04 1516.2 C 1471.08 1516.03 1459.59 1515.37 1448.6 1514.9 L 1448.63 1425.64 z"/><path transform="translate(0,0)" fill="rgb(9,121,203)" d="M 1501.87 995.293 C 1512.43 997.358 1523.45 999.894 1534.01 1002.15 L 1534 1089.91 L 1501.97 1083.66 L 1501.87 995.293 z"/><path transform="translate(0,0)" fill="rgb(9,121,203)" d="M 1501.99 733.671 L 1534.01 743.105 L 1534.03 830.607 C 1525.01 828.715 1511.22 824.489 1501.98 821.958 L 1501.99 733.671 z"/><path transform="translate(0,0)" fill="rgb(9,121,203)" d="M 1501.96 1299.82 L 1534.01 1303.24 L 1534.05 1390.3 C 1524.87 1390.03 1511.52 1388.45 1501.99 1387.77 L 1501.96 1299.82 z"/><path transform="translate(0,0)" fill="rgb(9,121,203)" d="M 1501.98 1559.83 C 1512.68 1559.94 1523.38 1560.25 1534.07 1560.76 L 1534.03 1647.6 L 1501.99 1647.57 L 1501.98 1559.83 z"/><path transform="translate(0,0)" fill="rgb(9,121,203)" d="M 1501.9 864.763 L 1534.02 872.8 L 1533.93 959.779 C 1523.28 957.663 1512.52 954.937 1501.95 952.396 L 1501.9 864.763 z"/><path transform="translate(0,0)" fill="rgb(9,121,203)" d="M 1553.83 749.143 C 1564.3 751.973 1575.41 755.433 1585.88 758.49 C 1585.99 787.244 1585.94 815.999 1585.73 844.753 C 1576.37 842.775 1563.28 838.905 1553.76 836.372 L 1553.83 749.143 z"/><path transform="translate(0,0)" fill="rgb(9,121,203)" d="M 1501.93 1429.83 C 1512.34 1430.21 1523.6 1431.32 1534.04 1432.14 L 1534.05 1519.01 C 1523.7 1518.72 1512.4 1517.93 1501.99 1517.41 L 1501.93 1429.83 z"/><path transform="translate(0,0)" fill="rgb(9,121,203)" d="M 1553.82 878.52 C 1564.02 880.775 1575.65 884.016 1585.9 886.63 L 1585.78 972.324 L 1553.71 965.156 L 1553.82 878.52 z"/><path transform="translate(0,0)" fill="rgb(9,121,203)" d="M 1553.81 1006.61 C 1564.51 1008.85 1575.19 1011.18 1585.86 1013.59 L 1585.79 1099.32 C 1575.8 1098.06 1563.72 1095.46 1553.67 1093.58 L 1553.81 1006.61 z"/><path transform="translate(0,0)" fill="rgb(9,121,203)" d="M 1553.86 1433.59 C 1564.52 1434.22 1575.17 1435.04 1585.8 1436.05 C 1586.11 1464.26 1585.81 1493 1585.8 1521.25 C 1575.13 1520.94 1564.46 1520.5 1553.8 1519.95 L 1553.86 1433.59 z"/><path transform="translate(0,0)" fill="rgb(9,121,203)" d="M 1553.79 1561.11 C 1564.46 1561.52 1575.14 1561.85 1585.82 1562.13 L 1585.79 1647.56 L 1553.8 1647.61 L 1553.79 1561.11 z"/><path transform="translate(0,0)" fill="rgb(9,121,203)" d="M 1553.79 1305.77 C 1564.46 1306.93 1575.13 1308.13 1585.79 1309.4 L 1585.76 1394.86 C 1575.22 1393.79 1564.36 1392.95 1553.78 1392.01 L 1553.79 1305.77 z"/><path transform="translate(0,0)" fill="rgb(9,121,203)" d="M 1304.75 1108.37 C 1305.45 1108.2 1306.36 1108.45 1307.19 1108.57 C 1308.54 1111.75 1307.93 1230.65 1307.94 1243.76 L 1275.23 1247.63 C 1273.18 1247.95 1273.46 1247.82 1271.33 1247.61 C 1269.95 1244.78 1270.57 1125.74 1270.55 1113.6 L 1304.75 1108.37 z"/><path transform="translate(0,0)" fill="rgb(9,121,203)" d="M 1248.82 1117.44 C 1250.62 1120.47 1249.79 1237.98 1249.78 1250.88 C 1238.83 1252.72 1224.51 1254.05 1213.26 1255.41 C 1211.16 1252.44 1212.1 1136.3 1212.11 1123.38 C 1224.32 1121.27 1236.56 1119.29 1248.82 1117.44 z"/><path transform="translate(0,0)" fill="rgb(9,121,203)" d="M 1190.01 1127.44 L 1191.48 1127.85 C 1192.42 1132.25 1191.97 1159.52 1191.96 1166.12 L 1191.97 1258.37 L 1156.96 1262.43 C 1156.34 1262.13 1155.91 1261.54 1155.41 1261.07 C 1154.39 1248.32 1155 1228.83 1155 1215.66 L 1155.04 1132.8 C 1166.68 1130.89 1178.34 1129.1 1190.01 1127.44 z"/><path transform="translate(0,0)" fill="rgb(9,121,203)" d="M 1132.39 1136.42 C 1132.96 1136.54 1132.53 1136.37 1133.87 1137.57 C 1135.55 1175.2 1134.04 1225.81 1134.07 1264.84 L 1100.23 1268.77 L 1098.4 1268.36 C 1097.36 1264.21 1097.75 1235.94 1097.76 1229.77 L 1097.87 1141.96 C 1109.35 1139.99 1120.86 1138.14 1132.39 1136.42 z"/><path transform="translate(0,0)" fill="rgb(9,121,203)" d="M 1303.53 973.239 C 1306.45 972.737 1305.14 972.432 1307.61 973.511 C 1308.43 981.889 1308.01 996.491 1308 1005.32 L 1307.94 1063.66 C 1298.41 1065.89 1284.16 1067.98 1274.23 1069.71 L 1271.54 1069.76 C 1269.36 1066.36 1270.47 990.789 1270.45 979.826 L 1303.53 973.239 z"/><path transform="translate(0,0)" fill="rgb(9,121,203)" d="M 1303.65 838.16 C 1306.14 837.692 1304.88 837.688 1307.42 838.201 C 1309.74 846.846 1307.95 914.771 1307.93 928.475 L 1273.27 935.805 L 1271.56 935.822 C 1269.51 932.784 1270.47 855.025 1270.48 845.833 L 1303.65 838.16 z"/><path transform="translate(0,0)" fill="rgb(9,121,203)" d="M 1305.53 702.01 C 1307.22 702.14 1306.34 701.842 1307.93 703.417 C 1308.23 733.072 1307.94 763.203 1307.93 792.896 L 1273.25 801.815 C 1271.75 801.783 1272.62 801.92 1270.71 801.062 C 1269.51 774.028 1270.45 739.717 1270.42 712.121 C 1282.14 708.818 1293.85 705.448 1305.53 702.01 z"/><path transform="translate(0,0)" fill="rgb(9,121,203)" d="M 1301.63 1556.46 C 1305.42 1556.34 1305.17 1555.69 1307.6 1557.48 C 1308.51 1564.66 1308.01 1580.33 1308.01 1588.15 L 1308 1647.68 L 1275.75 1647.68 C 1273.26 1647.84 1273.23 1648.07 1271.11 1646.88 C 1270.01 1641.04 1270.45 1623.01 1270.46 1616.27 L 1270.48 1557.3 L 1301.63 1556.46 z"/><path transform="translate(0,0)" fill="rgb(9,121,203)" d="M 1247.44 718.059 L 1249.56 718.595 C 1250.34 726.143 1249.93 740.956 1249.94 749.011 L 1249.95 807.695 C 1239.26 810.874 1225.46 813.941 1214.43 816.715 L 1213.39 816.643 C 1210.73 813.678 1212.18 738.201 1212.22 727.727 L 1247.44 718.059 z"/><path transform="translate(0,0)" fill="rgb(9,121,203)" d="M 1301.64 1288.42 C 1305.9 1287.93 1304.22 1287.44 1307.53 1288.78 C 1308.37 1297.7 1307.97 1311.82 1307.97 1321.14 L 1307.9 1378.82 L 1274.87 1381.27 L 1271.65 1381.42 C 1269.58 1378.03 1270.48 1302.22 1270.46 1291.63 L 1301.64 1288.42 z"/><path transform="translate(0,0)" fill="rgb(9,121,203)" d="M 1298.86 1422.42 C 1302.11 1422.11 1304.67 1421.43 1307.51 1422.82 C 1308.37 1431.6 1307.97 1445.93 1307.96 1455.15 L 1307.92 1512.89 L 1278.75 1514.11 C 1274.3 1514.21 1274.2 1514.91 1270.86 1513.09 C 1270 1506.71 1270.49 1490.99 1270.5 1483.82 L 1270.56 1424.27 C 1279.89 1423.8 1289.51 1423.04 1298.86 1422.42 z"/><path transform="translate(0,0)" fill="rgb(9,121,203)" d="M 1248.02 984.274 L 1249 984.52 C 1250.53 987.004 1249.91 1064.32 1249.91 1074.19 C 1237.92 1076.18 1225.96 1078.29 1214.01 1080.51 L 1213.32 1080.15 C 1211.23 1076.78 1212.09 1001.8 1212.1 991.535 C 1223.92 989.347 1236.19 986.67 1248.02 984.274 z"/><path transform="translate(0,0)" fill="rgb(9,121,203)" d="M 1248.81 851.333 C 1250.77 854.129 1249.92 930.775 1249.9 940.742 C 1237.67 943.578 1225.39 946.208 1213.06 948.629 C 1211.33 944.822 1212.09 870.633 1212.09 859.877 L 1248.81 851.333 z"/><path transform="translate(0,0)" fill="rgb(9,121,203)" d="M 1242.05 1426.42 C 1245.32 1425.99 1245.62 1425.74 1248.89 1426.55 C 1250.76 1431.26 1249.81 1504.41 1249.79 1515.3 C 1240.23 1515.95 1229.89 1516.21 1220.25 1516.59 C 1217.31 1516.85 1215.26 1517.44 1212.83 1515.97 C 1211.29 1509.86 1212.13 1439.51 1212.17 1428.22 C 1221.81 1427.94 1232.36 1427.04 1242.05 1426.42 z"/><path transform="translate(0,0)" fill="rgb(9,121,203)" d="M 1244.71 1294.44 C 1248.02 1293.9 1246.56 1293.53 1249.3 1294.86 C 1250.25 1300.45 1249.81 1318.19 1249.8 1324.64 L 1249.74 1383.28 C 1239.25 1384.19 1228.75 1385.03 1218.25 1385.8 C 1215.48 1386.06 1215.34 1386.34 1212.85 1385.3 C 1210.47 1376.95 1212.14 1311.35 1212.18 1298.16 C 1223 1296.69 1233.84 1295.45 1244.71 1294.44 z"/><path transform="translate(0,0)" fill="rgb(9,121,203)" d="M 1237.99 1558.5 L 1249.79 1558.14 L 1249.71 1647.59 L 1226.25 1647.67 L 1212.12 1647.7 L 1212.14 1559.11 C 1220.76 1558.96 1229.37 1558.75 1237.99 1558.5 z"/><path transform="translate(0,0)" fill="rgb(9,121,203)" d="M 1189.53 734.055 L 1190.81 734.184 C 1193.23 737.122 1191.98 813.444 1191.98 822.429 L 1157.77 830.799 L 1155.58 830.444 C 1154.76 825.355 1155.1 808.003 1155.1 802.063 L 1155.08 743.808 L 1189.53 734.055 z"/><path transform="translate(0,0)" fill="rgb(9,121,203)" d="M 1190.11 996.268 L 1191.03 996.506 C 1192.63 999.038 1192.02 1074.48 1192.02 1084.51 C 1181.1 1085.96 1167.82 1088.61 1156.79 1090.52 L 1156.1 1090.27 C 1154.32 1087.32 1155.06 1013.44 1155.06 1003.45 C 1164.91 1000.86 1179.78 998.329 1190.11 996.268 z"/><path transform="translate(0,0)" fill="rgb(9,121,203)" d="M 1190.32 865.241 L 1191.6 866.391 C 1192.38 874.817 1191.98 889.26 1191.98 898.12 L 1191.96 953.493 L 1157.02 960.73 L 1156 960.47 C 1154.48 958.017 1155.05 883.927 1155.04 873.853 L 1190.32 865.241 z"/><path transform="translate(0,0)" fill="rgb(9,121,203)" d="M 1168.08 1560.56 C 1175.66 1560.06 1184.3 1560.05 1191.98 1559.87 L 1191.98 1647.74 L 1178.5 1647.69 L 1155.03 1647.61 L 1155.04 1560.99 L 1168.08 1560.56 z"/><path transform="translate(0,0)" fill="rgb(9,121,203)" d="M 1189.38 1300.47 L 1191.49 1300.89 C 1192.37 1305.63 1192.08 1323.54 1192.07 1329.04 L 1191.91 1387.91 C 1180.82 1388.99 1169.37 1389.8 1158.24 1390.71 L 1155.89 1390.44 C 1154.36 1387.08 1155.02 1312.59 1155 1304.17 C 1166.44 1302.72 1177.9 1301.49 1189.38 1300.47 z"/><path transform="translate(0,0)" fill="rgb(9,121,203)" d="M 1179.41 1430.58 L 1191.95 1429.85 L 1191.92 1517.95 L 1168.25 1518.97 L 1154.95 1519.44 L 1155.06 1432.27 C 1163.1 1431.82 1171.35 1431.14 1179.41 1430.58 z"/><path transform="translate(0,0)" fill="rgb(9,121,203)" d="M 1131.44 750.079 L 1132.8 750.119 C 1133.19 750.548 1133.58 750.978 1133.97 751.408 C 1134.03 769.898 1134.02 821.762 1134.02 836.65 C 1124.31 839.507 1111.29 842.345 1101.23 844.812 L 1098.62 844.897 C 1096.94 840.682 1097.82 769.682 1097.82 759.472 C 1108.02 756.208 1120.94 752.988 1131.44 750.079 z"/><path transform="translate(0,0)" fill="rgb(9,121,203)" d="M 1130.32 1008.32 C 1131.65 1008.04 1131.92 1008.23 1133.34 1008.37 C 1134.77 1011.87 1133.99 1084.88 1133.99 1094.56 C 1123.61 1096.11 1112.61 1098.18 1102.22 1099.95 C 1101.01 1100.08 1099.83 1099.97 1098.59 1099.92 C 1096.81 1095.14 1097.86 1025.27 1097.89 1014.62 L 1130.32 1008.32 z"/><path transform="translate(0,0)" fill="rgb(9,121,203)" d="M 1132.75 879.306 C 1135 882.676 1134 955.446 1133.97 965.794 C 1123.98 968.423 1109.63 970.981 1099.22 973.148 C 1096.75 970.629 1097.8 898.04 1097.82 887.584 L 1132.75 879.306 z"/><path transform="translate(0,0)" fill="rgb(9,121,203)" d="M 1122.48 1434.59 C 1125.89 1434.25 1130.87 1433.4 1133.6 1435.09 C 1135.3 1457.45 1134.04 1496.78 1134.02 1520.38 C 1126.09 1520.9 1117.67 1521.1 1109.69 1521.44 C 1106.4 1521.72 1100.66 1522.72 1098.26 1520.33 C 1096.41 1502.36 1097.76 1456.21 1097.81 1436.17 C 1105.76 1435.88 1114.48 1435.12 1122.48 1434.59 z"/><path transform="translate(0,0)" fill="rgb(9,121,203)" d="M 1099.5 1562.51 L 1133.98 1561.67 C 1134.03 1571.64 1135.14 1644.27 1132.68 1647.67 L 1097.84 1647.7 C 1097.75 1628.99 1097.44 1584.95 1098.09 1563.96 C 1098.56 1563.47 1099.03 1562.99 1099.5 1562.51 z"/><path transform="translate(0,0)" fill="rgb(9,121,203)" d="M 1122.12 1307.59 L 1134.03 1306.39 L 1134.05 1392.84 C 1126.52 1393.08 1118.25 1393.85 1110.68 1394.41 L 1097.82 1395.32 L 1097.85 1310.2 L 1122.12 1307.59 z"/><path transform="translate(0,0)" fill="rgb(201,214,227)" d="M 424.014 696.673 L 615.832 636.835 C 637.721 630.06 675.597 616.624 696.045 612.054 L 696.01 1447.43 C 695.992 1536.36 696.928 1627.27 695.937 1716 C 606.524 1716 513.044 1714.57 423.984 1716.05 L 424.014 696.673 z"/><path transform="translate(0,0)" fill="rgb(91,152,204)" d="M 649.778 1108.34 L 653.013 1108.15 C 654.602 1110.3 654.08 1229.41 654.104 1243.25 C 642.863 1244.88 631.591 1246.28 620.295 1247.46 C 618.41 1242.68 619.538 1127.6 619.545 1113.53 C 628.598 1112.45 640.585 1109.96 649.778 1108.34 z"/><path transform="translate(0,0)" fill="rgb(91,152,204)" d="M 598.022 1117.42 C 598.092 1117.48 598.183 1117.53 598.233 1117.61 C 600.853 1121.94 599.174 1235.91 599.153 1250.59 L 567.236 1254.87 C 567.126 1254.79 566.993 1254.73 566.905 1254.62 C 564.579 1251.81 565.803 1137.57 565.771 1123.18 C 575.812 1120.92 587.76 1119.17 598.022 1117.42 z"/><path transform="translate(0,0)" fill="rgb(91,152,204)" d="M 540.537 1127.3 C 544.842 1126.66 543.505 1125.97 545.908 1127.72 C 546.855 1137.35 546.156 1160.75 546.149 1171.35 L 546.165 1257.69 C 537.651 1258.37 528.851 1259.8 520.37 1261.04 C 516.893 1261.21 516.902 1261.78 514.319 1260.33 C 513.48 1245.66 513.936 1228.2 513.934 1213.18 L 513.948 1131.95 C 522.785 1130.26 531.65 1128.71 540.537 1127.3 z"/><path transform="translate(0,0)" fill="rgb(91,152,204)" d="M 488.91 1136.38 L 492.997 1135.97 C 495.074 1139.77 494.164 1251.64 494.196 1264.7 C 485.624 1265.4 475.77 1266.92 467.145 1268.04 C 464.764 1268.29 464.905 1268.25 462.588 1267.57 C 461.659 1264.01 462.016 1236.52 462.022 1231.32 L 462.148 1140.91 L 488.91 1136.38 z"/><path transform="translate(0,0)" fill="rgb(91,152,204)" d="M 652.266 972.247 L 652.934 972.422 C 655.219 975.778 653.985 1052.56 653.986 1063.58 C 643.851 1065.88 631.585 1067.93 621.227 1069.9 L 619.942 1069.31 C 617.864 1062.41 619.479 992.293 619.529 979.687 L 652.266 972.247 z"/><path transform="translate(0,0)" fill="rgb(91,152,204)" d="M 652.294 837.106 L 653.397 837.565 C 655.175 842.6 653.924 917.276 653.893 928.329 L 619.449 936.364 C 618.838 927.157 619.289 913.399 619.327 903.886 L 619.464 845.648 L 652.294 837.106 z"/><path transform="translate(0,0)" fill="rgb(91,152,204)" d="M 651.665 702.116 L 652.629 702.154 C 653.05 702.575 653.47 702.996 653.89 703.416 C 654.034 720.995 653.968 777.657 653.973 792.273 C 642.985 795.325 632.259 798.214 621.443 801.865 L 620.348 801.695 C 618.232 798.437 619.32 722.46 619.302 711.846 C 629.517 709.3 641.477 705.267 651.665 702.116 z"/><path transform="translate(0,0)" fill="rgb(91,152,204)" d="M 620.232 1557.57 C 630.89 1556.92 643.21 1556.82 653.986 1556.52 L 654.053 1615.88 C 654.063 1625.13 654.496 1638.88 653.599 1647.75 L 619.53 1647.7 L 619.472 1588.19 C 619.472 1581.62 619.033 1563.1 620.232 1557.57 z"/><path transform="translate(0,0)" fill="rgb(91,152,204)" d="M 643.364 1288.6 C 646.43 1288.17 651.315 1287 653.624 1289.15 C 655.372 1312 653.979 1353.65 653.92 1377.87 L 628.759 1380.3 C 625.612 1380.75 622.385 1381.44 620.058 1379.76 C 619.031 1370.96 619.49 1356.21 619.513 1346.95 L 619.602 1291.3 C 627.531 1290.48 635.452 1289.58 643.364 1288.6 z"/><path transform="translate(0,0)" fill="rgb(91,152,204)" d="M 639.655 1422.59 L 654.014 1421.66 L 653.901 1512.61 C 645.96 1512.93 638.022 1513.33 630.089 1513.8 L 619.31 1514.09 C 619.994 1484.61 619.58 1453.64 619.386 1424.11 L 639.655 1422.59 z"/><path transform="translate(0,0)" fill="rgb(91,152,204)" d="M 597.359 984.223 L 598.08 984.321 C 600.223 986.925 599.26 1063.7 599.238 1073.73 C 589.49 1075.91 578.067 1077.79 568.133 1079.64 L 567.156 1079.59 C 566.754 1079.09 566.353 1078.59 565.951 1078.09 C 565.948 1058.29 565.838 1007.43 565.806 990.979 L 597.359 984.223 z"/><path transform="translate(0,0)" fill="rgb(91,152,204)" d="M 592.315 1294.37 C 596.133 1293.98 596.028 1293.33 598.794 1294.86 C 599.853 1302.64 599.237 1319.29 599.188 1327.95 C 599.032 1346.28 599.081 1364.6 599.337 1382.92 C 590.6 1384.09 581.081 1384.71 572.244 1385.45 C 569.294 1385.93 569.33 1386.15 566.557 1385.23 C 563.876 1374.89 565.895 1312.31 565.966 1297.61 L 592.315 1294.37 z"/><path transform="translate(0,0)" fill="rgb(91,152,204)" d="M 597.82 718.097 L 598.445 718.604 C 600.124 723.562 599.155 798.355 599.193 807.743 L 567.243 816.143 C 564.752 813.633 565.916 737.737 565.952 727.837 C 576.129 725.197 587.681 721.274 597.82 718.097 z"/><path transform="translate(0,0)" fill="rgb(91,152,204)" d="M 598.336 1425.41 C 599.819 1429.58 599.626 1505.79 598.842 1514.18 C 595.712 1515.73 594.075 1515.61 590.63 1515.9 C 584.451 1515.47 572.548 1516.19 565.968 1516.4 C 565.742 1487.01 565.764 1457.61 566.032 1428.22 C 576.829 1427.65 587.603 1426.72 598.336 1425.41 z"/><path transform="translate(0,0)" fill="rgb(91,152,204)" d="M 595.515 852.219 C 596.349 852.018 597.436 852.105 598.353 852.106 C 600.445 858.28 599.15 927.952 599.028 940.872 L 569.257 947.371 L 567.024 947.652 C 565.225 945.455 565.892 869.078 565.886 859.537 C 575.682 857.001 585.676 854.639 595.515 852.219 z"/><path transform="translate(0,0)" fill="rgb(91,152,204)" d="M 590.701 1558.47 L 599.131 1558.3 L 599.206 1647.6 L 576.5 1647.66 L 565.931 1647.54 L 565.947 1559.22 C 574.196 1558.92 582.448 1558.67 590.701 1558.47 z"/><path transform="translate(0,0)" fill="rgb(91,152,204)" d="M 541.467 996.154 C 544.196 995.554 543.175 995.436 545.699 996.277 C 546.651 1001.98 546.117 1018.98 546.104 1025.53 L 546.02 1083.92 L 518.098 1089.36 L 514.987 1089.7 C 512.854 1086.62 513.993 1011.23 514.016 1002.23 L 541.467 996.154 z"/><path transform="translate(0,0)" fill="rgb(91,152,204)" d="M 544.22 734.046 L 544.808 734.205 C 545.212 734.611 545.616 735.017 546.02 735.422 C 546.153 758.778 546.071 800.248 546.045 822.358 C 537.484 824.26 524.46 828.357 515.69 830.852 L 515.214 830.682 C 513.106 827.899 514.008 813.11 514.015 808.769 L 513.966 743.174 L 544.22 734.046 z"/><path transform="translate(0,0)" fill="rgb(91,152,204)" d="M 533.438 1430.59 L 546.202 1429.73 L 546.048 1517.54 L 524.243 1518.69 L 513.939 1519.07 L 513.881 1432.17 L 533.438 1430.59 z"/><path transform="translate(0,0)" fill="rgb(91,152,204)" d="M 542.656 1300.49 L 545.365 1300.39 C 546.881 1303.48 546.119 1377.79 546.097 1387.63 C 536.088 1388.36 527.816 1389.14 517.805 1390.49 C 516.456 1390.31 515.642 1389.99 514.334 1389.6 C 513.487 1385.51 513.962 1367.62 513.968 1362.54 L 513.912 1303.49 C 523.478 1302.35 533.06 1301.34 542.656 1300.49 z"/><path transform="translate(0,0)" fill="rgb(91,152,204)" d="M 522.234 1560.55 C 529.93 1560.16 538.321 1560.11 546.082 1559.91 L 546.224 1614.7 C 546.242 1623.92 546.648 1637.45 545.778 1646.28 C 542.942 1648.37 542.006 1647.61 537.629 1647.74 L 513.999 1647.6 C 513.959 1621.67 512.921 1587.31 514.312 1562.06 C 516.966 1560.19 518.383 1560.79 522.234 1560.55 z"/><path transform="translate(0,0)" fill="rgb(91,152,204)" d="M 544.863 865.224 L 545.571 865.889 C 546.665 870.735 546.094 889.789 546.074 896.165 L 546.081 952.759 L 515.321 959.892 C 512.784 956.907 514.015 882.765 514.041 873.413 C 523.766 870.547 534.967 867.833 544.863 865.224 z"/><path transform="translate(0,0)" fill="rgb(91,152,204)" d="M 491.556 1007.29 L 493.084 1007.27 C 495.173 1010.55 494.147 1083.45 494.099 1093.58 L 465.236 1098.98 C 463.623 1098.99 464.576 1099.09 462.429 1098.36 C 461.732 1094.39 462.026 1076.84 462.022 1071.93 L 462.001 1013.57 C 471.82 1011.33 481.673 1009.24 491.556 1007.29 z"/><path transform="translate(0,0)" fill="rgb(91,152,204)" d="M 490.889 750.161 L 493.058 749.819 C 494.964 753.099 494.057 826.806 494.003 836.301 C 484.111 838.926 474.264 841.723 464.469 844.691 C 463.34 844.645 464.089 844.758 462.385 843.784 C 461.317 816.883 462.044 785.934 462.102 758.73 L 490.889 750.161 z"/><path transform="translate(0,0)" fill="rgb(91,152,204)" d="M 482.529 1561.54 C 486.722 1561.29 489.608 1560.74 493.531 1562.06 C 494.794 1567.99 494.302 1585.2 494.279 1592.09 L 494.063 1647.6 L 472.5 1647.67 C 469.155 1647.76 465.322 1648.33 462.683 1646.61 C 461.651 1640.86 462.158 1625.16 462.156 1618.26 L 462.12 1562.03 L 482.529 1561.54 z"/><path transform="translate(0,0)" fill="rgb(91,152,204)" d="M 491.461 879.187 L 492.802 879.165 C 493.178 879.576 493.554 879.987 493.931 880.399 C 494.284 903.885 494.087 943.096 493.928 964.848 L 464.353 971.675 L 462.869 971.493 C 461.243 967.308 462.058 897.301 462.06 886.633 L 491.461 879.187 z"/><path transform="translate(0,0)" fill="rgb(91,152,204)" d="M 490.386 1306.45 C 492.005 1306.13 491.844 1306.29 493.564 1306.5 C 495.467 1312.55 494.222 1380.26 494.206 1391.89 C 484.574 1392.96 474.916 1393.79 465.242 1394.36 L 463.599 1394.57 L 462.314 1393.44 C 461.567 1366.3 462.125 1336.86 462.143 1309.55 C 471.371 1308.75 481.136 1307.49 490.386 1306.45 z"/><path transform="translate(0,0)" fill="rgb(91,152,204)" d="M 481.784 1434.42 L 494.224 1433.57 L 494.194 1519.95 C 488.195 1520.15 482.012 1520.53 475.999 1520.82 L 462.231 1521.24 L 462.108 1436.08 C 468.389 1435.34 475.42 1434.92 481.784 1434.42 z"/><path transform="translate(0,0)" fill="rgb(9,121,203)" d="M 990.063 1302.48 C 993.175 1324.05 990.124 1359.41 991.322 1382.1 C 991.931 1393.63 992.607 1403.11 992.814 1414.73 C 993.761 1488.58 993.639 1562.44 992.449 1636.29 L 992.371 1693.7 C 992.355 1697.73 992.527 1713.33 991.948 1716.15 L 990.226 1714.98 C 989.279 1707.8 989.908 1682.22 989.906 1673.47 L 989.902 1581.97 C 989.902 1489.95 988.564 1394.19 990.063 1302.48 z"/><path transform="translate(0,0)" fill="rgb(91,152,204)" d="M 740.08 1107.75 L 777.441 1113.56 L 777.482 1248.18 C 764.997 1246.52 752.489 1245.03 739.962 1243.73 L 740.08 1107.75 z"/><path transform="translate(0,0)" fill="rgb(91,152,204)" d="M 798.152 1117.3 L 836.157 1123.38 L 836.1 1255.49 C 823.377 1254.04 810.666 1252.49 797.968 1250.83 L 798.152 1117.3 z"/><path transform="translate(0,0)" fill="rgb(91,152,204)" d="M 856.225 1126.63 L 866.813 1128.52 C 875.63 1129.92 884.464 1131.23 893.312 1132.42 C 893.315 1147.19 894.812 1255.06 892.395 1261.7 C 889.67 1262.1 889.402 1262.15 886.668 1261.98 C 883.48 1261.06 860.418 1258.47 856.176 1257.91 L 856.225 1126.63 z"/><path transform="translate(0,0)" fill="rgb(91,152,204)" d="M 913.768 1135.79 C 924.765 1138.05 938.996 1139.86 950.285 1141.57 L 950.186 1269.25 C 938.037 1267.98 925.907 1266.52 913.803 1264.87 L 913.768 1135.79 z"/><path transform="translate(0,0)" fill="rgb(91,152,204)" d="M 740.035 836.652 L 777.619 845.545 L 777.648 936.299 C 765.817 934.33 751.862 930.946 739.984 928.325 L 740.035 836.652 z"/><path transform="translate(0,0)" fill="rgb(91,152,204)" d="M 740.202 972.197 L 777.664 979.577 L 777.693 1070.52 C 765.126 1068.35 752.58 1066.06 740.057 1063.65 C 739.664 1034.34 739.574 1001.41 740.202 972.197 z"/><path transform="translate(0,0)" fill="rgb(91,152,204)" d="M 740.219 1556.32 C 752.318 1557.04 765.329 1557.14 777.646 1557.72 L 777.631 1647.66 L 739.963 1647.66 C 739.969 1619.81 738.788 1583.27 740.219 1556.32 z"/><path transform="translate(0,0)" fill="rgb(91,152,204)" d="M 740.052 1421.84 C 752.062 1422.27 765.597 1423.44 777.686 1424.22 L 777.775 1514.26 C 765.186 1513.91 752.602 1513.44 740.022 1512.85 L 740.052 1421.84 z"/><path transform="translate(0,0)" fill="rgb(91,152,204)" d="M 797.985 717.49 C 810.692 720.903 823.373 724.41 836.027 728.013 L 836.024 816.751 C 823.512 813.942 810.478 810.546 797.973 807.49 L 797.985 717.49 z"/><path transform="translate(0,0)" fill="rgb(91,152,204)" d="M 798.085 850.634 C 810.751 853.715 823.434 856.723 836.133 859.66 L 836.06 949.352 C 823.332 946.588 810.647 943.631 798.009 940.482 L 798.085 850.634 z"/><path transform="translate(0,0)" fill="rgb(91,152,204)" d="M 740.029 701.496 C 752.174 705.24 765.141 708.651 777.439 712.063 L 777.56 801.537 C 773.318 801.951 745.831 794.018 739.963 792.412 L 740.029 701.496 z"/><path transform="translate(0,0)" fill="rgb(91,152,204)" d="M 740.066 1287.83 C 751.664 1288.53 765.812 1290.29 777.505 1291.45 L 777.611 1380.73 C 774.718 1381.89 745.366 1378.99 740.043 1378.58 L 740.066 1287.83 z"/><path transform="translate(0,0)" fill="rgb(91,152,204)" d="M 798.073 1425.86 C 809.798 1426.15 824.081 1427.49 836.074 1428.2 L 836.055 1516.69 L 797.955 1515.11 L 798.073 1425.86 z"/><path transform="translate(0,0)" fill="rgb(91,152,204)" d="M 797.973 1293.68 C 809.373 1294.38 824.398 1296.48 836.018 1297.77 L 836.083 1385.85 L 797.967 1382.91 L 797.973 1293.68 z"/><path transform="translate(0,0)" fill="rgb(91,152,204)" d="M 798.045 983.791 C 810.703 986.544 823.397 989.132 836.122 991.554 L 836.036 1080.53 C 823.319 1078.39 810.617 1076.16 797.933 1073.84 L 798.045 983.791 z"/><path transform="translate(0,0)" fill="rgb(91,152,204)" d="M 798.105 1558.08 C 810.792 1558.64 823.487 1558.99 836.186 1559.13 L 836.129 1647.78 L 798.11 1647.55 L 798.105 1558.08 z"/><path transform="translate(0,0)" fill="rgb(91,152,204)" d="M 856.181 733.637 C 867.278 736.122 881.939 740.621 893.185 743.71 L 893.034 831.453 L 856.057 822.22 L 856.181 733.637 z"/><path transform="translate(0,0)" fill="rgb(91,152,204)" d="M 856.112 995.677 L 893.056 1003.21 L 893.065 1090.53 C 881.768 1089.14 867.469 1086.29 856.022 1084.33 L 856.112 995.677 z"/><path transform="translate(0,0)" fill="rgb(91,152,204)" d="M 856.101 1429.76 C 867.586 1430.16 881.467 1431.52 893.124 1432.35 L 893.186 1519.41 C 881.11 1519.16 868.302 1518.41 856.177 1517.91 C 856.498 1488.76 856.138 1458.96 856.101 1429.76 z"/><path transform="translate(0,0)" fill="rgb(91,152,204)" d="M 856.281 1299.88 L 893.256 1303.83 L 893.12 1391.06 C 880.942 1389.85 868.48 1388.88 856.265 1387.81 C 856.1 1358.5 856.105 1329.19 856.281 1299.88 z"/><path transform="translate(0,0)" fill="rgb(91,152,204)" d="M 856.067 1559.89 C 868.04 1559.86 881.028 1560.52 893.089 1560.94 L 893.056 1647.62 L 856.106 1647.73 L 856.067 1559.89 z"/><path transform="translate(0,0)" fill="rgb(91,152,204)" d="M 856.197 864.696 C 868.466 867.928 880.801 870.901 893.196 873.613 L 893.044 961.691 C 880.737 958.939 868.449 956.103 856.181 953.182 L 856.197 864.696 z"/><path transform="translate(0,0)" fill="rgb(91,152,204)" d="M 913.824 878.621 L 950.309 887.677 L 950.277 974.144 L 913.852 965.975 L 913.824 878.621 z"/><path transform="translate(0,0)" fill="rgb(91,152,204)" d="M 913.91 749.444 C 924.552 751.791 939.414 756.362 950.26 759.328 L 950.257 846.24 C 939.635 843.048 924.862 839.836 913.811 837.079 L 913.91 749.444 z"/><path transform="translate(0,0)" fill="rgb(91,152,204)" d="M 913.773 1007.59 C 924.851 1009.13 939.157 1012.33 950.27 1014.53 L 950.269 1100.53 C 938.731 1098.99 925.355 1096.4 913.774 1094.41 L 913.773 1007.59 z"/><path transform="translate(0,0)" fill="rgb(91,152,204)" d="M 913.907 1433.95 L 950.194 1436.23 L 950.148 1521.84 L 913.948 1520.13 C 913.771 1491.4 913.757 1462.68 913.907 1433.95 z"/><path transform="translate(0,0)" fill="rgb(91,152,204)" d="M 913.917 1561.72 L 950.177 1562.48 L 950.178 1647.66 L 913.926 1647.67 C 913.777 1619.02 913.774 1590.37 913.917 1561.72 z"/><path transform="translate(0,0)" fill="rgb(91,152,204)" d="M 913.826 1305.83 C 924.068 1307.59 937.345 1308.61 948.039 1310.05 L 949.904 1311.02 C 951.007 1319.25 950.882 1392.06 948.674 1395.27 C 937.093 1394.26 925.501 1393.37 913.901 1392.61 L 913.826 1305.83 z"/><path transform="translate(0,0)" fill="rgb(254,254,254)" d="M 1417.39 250.414 C 1482.14 244.928 1572.42 266.744 1629.97 295.458 C 1638.34 299.632 1655 306.45 1661.93 312.008 C 1668 316.883 1671.83 324.02 1672.54 331.778 C 1673.23 339.47 1670.7 347.105 1665.56 352.864 C 1660.36 358.612 1652.97 361.877 1645.22 361.843 C 1630.83 361.719 1607.99 352.627 1592.91 349.889 C 1480.5 329.487 1372.21 369.304 1295.3 452.848 C 1309.55 465.655 1342.99 489.98 1347.83 506.667 C 1357.61 540.352 1291.78 549.607 1269.1 555.801 L 1142.09 591.207 C 1120.24 597.36 1098.39 603.819 1076.72 609.127 C 1060.22 613.169 1042.47 600.988 1042.93 585.005 C 1043.43 567.555 1048.76 542.847 1051.75 525.265 L 1072.28 404.377 C 1075.55 385.32 1081.62 327.081 1091.87 311.696 C 1107.99 287.505 1138.96 313.405 1152.2 327.238 C 1157.38 332.653 1168.97 341.809 1176.09 347.984 C 1250.5 287.008 1320.66 257.275 1417.39 250.414 z"/><path transform="translate(0,0)" fill="rgb(94,205,67)" d="M 1416.51 279.406 C 1487.66 272.693 1581.22 298.376 1642.61 333.219 C 1585.69 317.972 1545.93 312.298 1486.1 319.945 C 1398.73 331.113 1309.06 384.949 1256.13 455.627 C 1277.51 474.305 1298.76 493.119 1319.9 512.069 C 1301.87 517.199 1283.83 522.228 1265.75 527.158 C 1201.62 545.524 1134.98 565.003 1070.7 581.984 C 1086.09 499.919 1099.02 413.193 1113.32 330.428 L 1177.16 385.921 C 1240.83 321.761 1326.22 283.763 1416.51 279.406 z"/><path transform="translate(0,0)" fill="rgb(254,254,254)" d="M 593.57 250.425 C 699.655 245.811 790.896 280.967 871.645 348.11 C 887.225 334.927 902.124 320.859 918.229 308.27 C 929.157 298.71 951.234 300.569 958.021 314.24 C 964.951 328.198 967.171 353.126 969.798 369.067 L 982.632 446.245 C 986.281 468.024 1007.36 576.855 1004.55 589.483 C 1002.86 596.873 998.157 603.22 991.576 606.985 C 977.404 615.282 934.169 599.277 918.056 594.697 L 811.762 564.841 C 780.897 556.734 748.828 547.771 718.302 538.267 C 702.248 533.268 693.909 508.889 705.267 495.998 C 718.587 480.881 737.363 466.471 752.956 452.686 C 734.547 433.441 719.713 419.626 698.017 404.224 C 630.335 356.178 546.154 335.575 464.014 348.389 C 445.982 351.288 428.678 357.439 410.735 360.923 C 394.733 364.031 376.725 355.382 375.304 337.745 C 374.646 329.833 377.255 321.997 382.525 316.059 C 391.496 305.854 405.695 301.741 417.337 296.012 C 473.25 268.497 531.321 254.401 593.57 250.425 z"/><path transform="translate(0,0)" fill="rgb(94,205,67)" d="M 420.862 325.27 C 436.302 316.345 454.993 309.786 471.753 303.673 C 612.507 252.341 763.42 279.997 870.882 385.908 C 892.17 367.633 913.32 349.196 934.329 330.6 C 940.122 356.052 944.9 391.337 949.376 417.741 L 976.914 581.914 C 942.209 572.949 906.512 562.266 871.878 552.491 L 727.875 512.043 C 749.085 493.146 770.391 474.354 791.79 455.67 C 715.42 353.806 578.218 297.193 452.654 322.269 C 445.198 323.758 436.124 324.989 429.042 327.321 C 425.084 326.777 424.542 326.705 420.862 325.27 z"/><path transform="translate(0,0)" fill="rgb(118,187,104)" d="M 404.443 333.674 C 409.385 330.678 415.468 327.136 420.862 325.27 C 424.542 326.705 425.084 326.777 429.042 327.321 C 421.454 328.868 412.061 331.646 404.443 333.674 z"/></svg>